#!OML:ASF H:\Terrain\Patient Classification 1\Animal1\Tuesday\Animal1.ASF
:FULLY-SPECIFIED
:DEGREES
2455
root 16.2868 16.9949 32.528 -7.5969 66.6956 1066.76
lowerback -0.234888 2.54701 2.4277
upperback -2.24887 3.45091 0.562317
thorax -2.06762 1.69284 -0.831581
lowerneck -2.89872 -1.71954 -0.404138
upperneck 36.5954 -4.50013 11.6767
head 13.0348 -0.0422047 4.34892
rclavicle -4.40246e-014 -1.59028e-014
rhumerus -39.3914 5.9566 -84.1381
rradius 30.5029
rwrist -11.6126
rhand -19.2279 32.3827
rfingers 7.12502
rthumb 7.08513 2.52131
lclavicle -4.40246e-014 -1.59028e-014
lhumerus -44.602 6.6358 78.1875
lradius 35.0477
lwrist -28.2922
lhand 5.75889 40.9502
lfingers 7.12502
lthumb 31.0935 68.3338
rfemur -17.1467 19.3578 29.1655
rtibia 27.6239
rfoot -8.34308 -24.5222
rtoes 7.86087
lfemur -31.9953 -23.3602 -3.32073
ltibia 33.5141
lfoot -10.5399 -11.0959
ltoes -7.91034
2456
root 16.3888 17.0298 32.4754 -6.17651 65.1307 1068.26
lowerback -0.72506 2.59207 2.53328
upperback -2.04642 3.48857 0.510519
thorax -1.57392 1.71635 -0.91239
lowerneck -3.52625 -1.59324 -0.419744
upperneck 37.1138 -4.36544 11.5137
head 13.3895 0.0189553 4.33918
rclavicle 5.3178e-014 -6.75868e-015
rhumerus -39.2426 6.26608 -83.8911
rradius 30.8203
rwrist -13.0106
rhand -17.3609 31.2728
rfingers 7.12502
rthumb 8.88714 1.47998
lclavicle 5.3178e-014 -6.75868e-015
lhumerus -45.0345 7.36791 78.0466
lradius 35.5293
lwrist -28.6254
lhand 5.76885 41.0832
lfingers 7.12502
lthumb 31.103 68.465
rfemur -16.5976 19.2376 28.5798
rtibia 27.1189
rfoot -8.31421 -23.1026
rtoes 5.53291
lfemur -31.5973 -25.083 -2.89973
ltibia 32.4495
lfoot -9.16234 -11.7542
ltoes -1.86003
2457
root 16.4688 16.9797 32.4513 -5.48258 63.83 1069.21
lowerback -0.736219 2.48094 2.13121
upperback -1.85588 3.33405 0.59756
thorax -1.40437 1.64789 -0.593822
lowerneck -4.32387 -1.42592 -0.269714
upperneck 37.7819 -4.19688 11.3052
head 13.8541 0.120716 4.29894
rclavicle -1.18059e-014 2.78299e-015
rhumerus -39.1317 6.76003 -84.0452
rradius 30.8169
rwrist -14.1212
rhand -21.2653 32.6442
rfingers 7.12502
rthumb 5.1182 2.72605
lclavicle -1.18059e-014 2.78299e-015
lhumerus -45.3065 8.06515 77.7229
lradius 35.8718
lwrist -28.8329
lhand 5.78124 41.0288
lfingers 7.12502
lthumb 31.1148 68.4083
rfemur -15.9239 19.6583 28.3318
rtibia 26.6629
rfoot -8.79425 -22.3503
rtoes 6.27109
lfemur -30.4143 -25.5255 -3.02036
ltibia 31.6429
lfoot -12.0659 -10.582
ltoes -14.8487
2458
root 16.5245 17.0107 32.425 -6.11137 62.5873 1068.6
lowerback -0.587139 2.49089 2.52545
upperback -1.69992 3.35236 0.828866
thorax -1.31924 1.6553 -0.579351
lowerneck -4.61044 -1.48827 -0.715124
upperneck 37.8057 -4.35809 11.5599
head 13.9584 0.010275 4.47144
rclavicle -8.51668e-015 -1.55052e-014
rhumerus -38.9094 6.47016 -83.7573
rradius 30.5717
rwrist -14.0563
rhand -21.9368 33.3012
rfingers 7.12502
rthumb 4.46981 3.3684
lclavicle -8.51668e-015 -1.55052e-014
lhumerus -45.1322 7.84246 77.9039
lradius 36.0189
lwrist -28.5379
lhand 5.61515 41.1652
lfingers 7.12502
lthumb 30.9565 68.5749
rfemur -15.5333 19.886 28.7586
rtibia 26.5198
rfoot -8.9054 -21.7033
rtoes 5.39078
lfemur -30.1309 -26.2261 -1.97992
ltibia 30.7208
lfoot -11.228 -11.9079
ltoes -9.14293
2459
root 16.5707 16.9845 32.393 -7.09874 61.5237 1067.12
lowerback -0.521953 2.34949 3.15241
upperback -1.81889 3.18106 1.19871
thorax -1.47113 1.56317 -0.555728
lowerneck -4.67493 -1.49003 -0.899337
upperneck 37.7381 -4.392 11.607
head 13.9475 -0.0418513 4.51283
rclavicle -3.18956e-014 1.19271e-015
rhumerus -38.8528 6.21939 -83.4384
rradius 30.4104
rwrist -13.4554
rhand -21.8665 33.7245
rfingers 7.12502
rthumb 4.53768 3.79309
lclavicle -3.18956e-014 1.19271e-015
lhumerus -45.1742 7.73163 77.9384
lradius 36.0229
lwrist -28.3458
lhand 4.88989 41.0328
lfingers 7.12502
lthumb 30.2649 68.5717
rfemur -15.8374 20.0389 29.4856
rtibia 26.6118
rfoot -8.10878 -21.3928
rtoes 1.37271
lfemur -30.272 -26.116 -0.569733
ltibia 29.9342
lfoot -11.751 -12.4711
ltoes -17.2717
2460
root 16.6505 17.0227 32.3567 -3.89527 60.073 1070.89
lowerback -0.372995 2.36804 1.59589
upperback -1.87855 3.19123 0.694309
thorax -1.66881 1.58196 -0.214787
lowerneck -3.99691 -1.50134 -0.771683
upperneck 37.1959 -4.43873 11.6813
head 13.5471 -0.0875711 4.46198
rclavicle -2.53233e-014 -3.97569e-016
rhumerus -39.2294 6.24228 -83.6019
rradius 30.4528
rwrist -13.1831
rhand -22.7621 34.518
rfingers 7.12502
rthumb 3.67284 4.56994
lclavicle -2.53233e-014 -3.97569e-016
lhumerus -45.4509 7.69471 77.4846
lradius 35.8962
lwrist -28.3087
lhand 3.81264 40.5972
lfingers 7.12502
lthumb 29.2368 68.32
rfemur -15.3919 20.4192 27.5596
rtibia 26.324
rfoot -8.00692 -20.4793
rtoes -0.708575
lfemur -29.3136 -26.6278 -2.44882
ltibia 29.6427
lfoot -11.988 -12.0556
ltoes -16.4368
2461
root 16.7121 17.0293 32.32 -3.22256 58.6516 1071.53
lowerback -0.421713 2.39145 1.26275
upperback -1.91378 3.22029 0.718018
thorax -1.69663 1.60154 -0.00436253
lowerneck -3.96322 -1.55854 -0.653458
upperneck 37.1128 -4.54041 11.5533
head 13.5054 -0.149326 4.36494
rclavicle 4.59301e-014 1.35174e-014
rhumerus -39.4413 6.79469 -83.7528
rradius 30.4851
rwrist -13.5333
rhand -22.6282 34.1136
rfingers 7.12502
rthumb 3.80214 4.16778
lclavicle 4.59301e-014 1.35174e-014
lhumerus -45.495 7.60043 77.4117
lradius 35.9944
lwrist -28.2165
lhand 3.53252 40.5519
lfingers 7.12502
lthumb 28.9693 68.3209
rfemur -15.5298 21.0167 27.0967
rtibia 26.3652
rfoot -8.14156 -19.7267
rtoes -1.05707
lfemur -28.7991 -26.4319 -2.60594
ltibia 29.3865
lfoot -12.4018 -11.914
ltoes -15.0797
